# xmcd
#
# Track frame offsets:
#	150
#	18568
#	34710
#	50395
#	67595
#	81935
#	100093
#	123435
#	144960
#	160825
#	179415
#
# Disc length: 2678 seconds
#
# Revision: 4
# Processed by: cddbd v1.5.2PL0 Copyright (c) Steve Scherf et al.
# Submitted via: EZCDAudioConverter 7.1.5.1
#
DISCID=840a740b
DTITLE=Restless Heart - Big Dreams In A Small Town
DYEAR=1988
DGENRE=Country
TTITLE0=Say What's In Your Heart
TTITLE1=Big Dreams In A Small Town
TTITLE2=A Tender Lie
TTITLE3=Jenny Come Back
TTITLE4=No Way Out
TTITLE5=Carved In Stone
TTITLE6=Eldorado
TTITLE7=The Bluest Eyes In Texas
TTITLE8=This Time
TTITLE9=Calm Before The Storm
TTITLE10=The Ride Of Your Life
EXTD=
EXTT0=
EXTT1=
EXTT2=
EXTT3=
EXTT4=
EXTT5=
EXTT6=
EXTT7=
EXTT8=
EXTT9=
EXTT10=
PLAYORDER=
